<svg id="Layer_1" data-name="Layer 1" xmlns="http://www.w3.org/2000/svg" viewBox="0 0 3405.65 973.83">
    <g id="animals">
        <path d="M1551.72,2436.44h-28c-21.46,0-38.85-18-38.88-40.17V2187.22c0-22.17,17.42-40.13,38.88-40.17h28c21.48,0,38.91,18,39,40.17v209.05C1590.59,2418.45,1573.19,2436.4,1551.72,2436.44Zm-27.78-267.93c-9.82,0-17.82,8.3-18,18.64v209.19c0,10.43,8.06,18.88,18,18.92h27.52c9.93,0,18-8.46,18-18.92V2186.22a18,18,0,0,0-18-18h0Z" transform="translate(-881.86 -1971.75)" style="stroke:#000;stroke-miterlimit:10;stroke-width:20px"/>
        <path d="M958.87,2309.39H930.3a38.23,38.23,0,0,1-38.41-40V2060.21c0-22.21,17.42-40.21,38.91-40.21h28.06c21.49,0,38.91,18,38.91,40.21h0v210.27a38.91,38.91,0,0,1-38.91,38.91Zm-27.81-268.22c-9.91,0-17.95,8.5-18,18.95v209.15c0,10.44,8.07,18.9,18,18.94h27.56c9.91,0,17.94-8.5,18-18.94V2060.12c0-10.45-8.07-18.91-18-18.95Z" transform="translate(-881.86 -1971.75)" style="stroke:#000;stroke-miterlimit:10;stroke-width:20px"/>
        <path d="M1396.07,2747H1244.46a152.47,152.47,0,0,1-151.12-134.11h-7a152.38,152.38,0,0,1-152-152V2297.46a10.59,10.59,0,0,1,21.18,0v163.47c.23,72.25,57.67,130.71,128.5,130.79h5.6V2260c0-97.24,90.81-173.21,192-147.1,66.26,17.1,111.5,78.47,111.5,146.9v201.15c-.23,83.94-68.09,151.89-151.75,152H1111.91a131.07,131.07,0,0,0,129.38,112.94h154.78a131.23,131.23,0,0,0,131.08-131.08V2423.94a10.59,10.59,0,0,1,21.17,0v170.81A152.46,152.46,0,0,1,1396.07,2747Zm-285.36-155.28h130.58c72-.08,130.34-58.54,130.57-130.79V2260c0-83.65-78-149-165-126.69-57.16,14.67-96.14,67.68-96.14,126.69h0Z" transform="translate(-881.86 -1971.75)" style="stroke:#000;stroke-miterlimit:10;stroke-width:20px"/>
        <path d="M979.85,2252.92H901.29a10.59,10.59,0,1,1,0-21.17h78.56a10.59,10.59,0,1,1,0,21.17Z" transform="translate(-881.86 -1971.75)" style="stroke:#000;stroke-miterlimit:10"/>
        <path d="M1578.53,2387H1499.9a10.59,10.59,0,0,1,0-21.18h78.63a10.59,10.59,0,0,1,0,21.18Z" transform="translate(-881.86 -1971.75)" style="stroke:#000;stroke-miterlimit:10"/>
    </g>
    <path d="M2340.92,1987.11v759.81H2246.7v-86a212.73,212.73,0,0,1-82.93,68.61q-50.19,23.55-110.6,23.55-78.84,0-141.31-34.81t-97.8-97.79q-35.31-63-35.31-144.9t35.31-144.38a250.39,250.39,0,0,1,97.8-97.28q62.46-34.83,141.31-34.83,58.36,0,107.52,22a208.9,208.9,0,0,1,81.92,65v-299ZM2154.55,2643q42-24,65.53-67.58t23.56-99.84q0-56.32-23.56-99.84t-65.53-67.07q-42-23.55-93.19-23.56-52.22,0-93.69,23.56t-65.53,67.07q-24.08,43.52-24.06,99.84t24.06,99.84q24,43.53,65.53,67.58t93.69,24.06Q2112.54,2667,2154.55,2643Z" transform="translate(-881.86 -1971.75)"/>
    <path d="M2528.8,2081.32q-18.95-18.42-18.94-45.06t18.94-45.56q18.93-18.95,47.62-19t47.61,17.92q18.94,17.92,18.95,44.55,0,27.65-18.95,46.59t-47.61,18.94Q2547.74,2099.75,2528.8,2081.32Zm-1.52,122.88h98.3v542.72h-98.3Z" transform="translate(-881.86 -1971.75)"/>
    <path d="M3242,2233.9q62.46,34.83,97.79,97.28t35.33,144.38q0,81.93-35.33,144.9T3242,2718.25q-62.46,34.82-141.32,34.81-58.35,0-107-22.52a222.4,222.4,0,0,1-82.43-65.54v280.57H2813V2204.2h94.2v86a208.72,208.72,0,0,1,82.94-68.1q50.17-23,110.59-23Q3179.56,2199.07,3242,2233.9ZM3186.2,2643q41.49-24,65.55-67.58t24.06-99.84q0-56.32-24.06-99.84t-65.55-67.07q-41.47-23.55-93.68-23.56-51.21,0-92.68,24.06t-65.53,67.08q-24.06,43-24.06,99.33t23.55,99.84q23.52,43.53,65.53,67.58t93.19,24.06Q3144.73,2667,3186.2,2643Z" transform="translate(-881.86 -1971.75)"/>
    <path d="M3511.33,1987.11h98.29v759.81h-98.29Z" transform="translate(-881.86 -1971.75)"/>
    <path d="M4285.45,2508.32H3845.14q9.21,71.7,63,115.21T4041.75,2667q97.26,0,156.67-65.53l54.27,63.49q-36.87,43-91.64,65.54t-122.38,22.52q-86,0-152.58-35.33t-102.9-98.81q-36.36-63.47-36.35-143.36,0-78.84,35.32-142.33t97.28-98.83q61.93-35.31,139.78-35.33T4158,2234.4q60.93,35.35,95.23,98.83t34.32,145.41A278.56,278.56,0,0,1,4285.45,2508.32ZM3900.94,2325q-47.62,43-55.8,112.63H4193.3q-8.21-68.61-55.82-112.13T4019.22,2282Q3948.56,2282,3900.94,2325Z" transform="translate(-881.86 -1971.75)"/>
</svg>
